<svg xmlns="http://www.w3.org/2000/svg" version="1.1" xmlns:xlink="http://www.w3.org/1999/xlink" xmlns:svgjs="http://svgjs.dev/svgjs" viewBox="0 0 6.502719726562499 6.5027197265625"><g transform="matrix(1,0,0,1,1.641893310546875,2.87385986328125)"><g transform="matrix(1,0,0,1,0,0)"><g clip-path="url(#SvgjsClipPath1001)"><path d=" M -1.063873779296875 -2.29584033203125 L 4.355059326171876 -2.29584033203125 L 4.355059326171876 3.1230927734375005 L -1.063873779296875 3.1230927734375005 Z" fill="#3e7742" transform="matrix(1,0,0,1,0,0)" fill-rule="nonzero"></path></g></g><g transform="matrix(1,0,0,1,0,0)"><path d=" M 0.233 0.761 Q 0.197 0.761 0.197 0.712 Q 0.197 0.678 0.217 0.6335 Q 0.23700000000000002 0.589 0.26 0.545 Q 0.28 0.504 0.2965 0.46799999999999997 Q 0.313 0.432 0.313 0.408 Q 0.313 0.384 0.3 0.384 Q 0.29 0.384 0.273 0.396 Q 0.255 0.409 0.232 0.438 L 0.213 0.461 Q 0.209 0.46699999999999997 0.20450000000000002 0.473 Q 0.2 0.479 0.195 0.484 Q 0.167 0.521 0.1375 0.5615 Q 0.108 0.602 0.0845 0.636 Q 0.061 0.67 0.049 0.6910000000000001 Q 0.039 0.71 0.024 0.71 Q 0.014 0.71 0.007 0.7015 Q 0 0.6930000000000001 0 0.679 Q 0 0.671 0.003 0.662 Q 0.023 0.625 0.041 0.585 Q 0.059000000000000004 0.545 0.076 0.505 Q 0.09 0.472 0.1045 0.4405 Q 0.11900000000000001 0.409 0.133 0.381 Q 0.14200000000000002 0.364 0.164 0.35 Q 0.186 0.336 0.20400000000000001 0.336 Q 0.224 0.336 0.224 0.351 Q 0.224 0.362 0.214 0.378 Q 0.2 0.4 0.1765 0.4395 Q 0.153 0.479 0.133 0.516 Q 0.14200000000000002 0.504 0.153 0.4895 Q 0.164 0.475 0.177 0.459 L 0.209 0.421 Q 0.23800000000000002 0.386 0.266 0.3695 Q 0.294 0.353 0.322 0.353 Q 0.371 0.353 0.371 0.398 Q 0.371 0.425 0.36 0.451 Q 0.34900000000000003 0.477 0.342 0.492 Q 0.297 0.588 0.2765 0.647 Q 0.256 0.706 0.266 0.706 Q 0.276 0.706 0.2975 0.6915 Q 0.319 0.677 0.35000000000000003 0.651 Q 0.366 0.636 0.382 0.619 Q 0.398 0.602 0.41500000000000004 0.582 Q 0.422 0.5740000000000001 0.428 0.5740000000000001 Q 0.435 0.5740000000000001 0.435 0.585 Q 0.435 0.596 0.428 0.607 Q 0.422 0.617 0.40850000000000003 0.6335 Q 0.395 0.65 0.381 0.665 Q 0.332 0.718 0.276 0.748 Q 0.267 0.753 0.2605 0.7555 Q 0.254 0.758 0.249 0.759 Q 0.245 0.76 0.2415 0.7605 Q 0.23800000000000002 0.761 0.233 0.761 M 0.59498095703125 0.323 Q 0.58198095703125 0.323 0.5729809570312501 0.3145 Q 0.56398095703125 0.306 0.56398095703125 0.293 Q 0.56398095703125 0.27599999999999997 0.57598095703125 0.264 Q 0.58798095703125 0.252 0.60398095703125 0.252 Q 0.61998095703125 0.252 0.62848095703125 0.263 Q 0.63698095703125 0.274 0.63498095703125 0.289 Q 0.63098095703125 0.304 0.61998095703125 0.3135 Q 0.60898095703125 0.323 0.59498095703125 0.323 M 0.43298095703125 0.76 Q 0.40498095703125 0.76 0.39048095703125 0.7415 Q 0.37598095703125 0.723 0.37598095703125 0.69 Q 0.37598095703125 0.675 0.37898095703125 0.657 Q 0.38298095703125 0.636 0.39448095703125 0.6065 Q 0.40598095703125 0.577 0.42098095703125 0.5469999999999999 Q 0.43598095703125 0.517 0.44798095703125 0.496 Q 0.45898095703124997 0.477 0.47448095703125 0.4515 Q 0.48998095703125 0.426 0.49998095703125 0.408 Q 0.50798095703125 0.395 0.51098095703125 0.392 Q 0.51798095703125 0.378 0.53698095703125 0.3695 Q 0.55598095703125 0.361 0.57198095703125 0.361 Q 0.59298095703125 0.361 0.59298095703125 0.374 Q 0.59298095703125 0.38 0.58698095703125 0.389 Q 0.56798095703125 0.42 0.54248095703125 0.4605 Q 0.51698095703125 0.501 0.49298095703125 0.544 Q 0.46898095703125 0.587 0.45348095703125 0.6255 Q 0.43798095703125 0.664 0.43798095703125 0.6910000000000001 Q 0.43798095703125 0.719 0.45898095703124997 0.719 Q 0.47298095703125 0.719 0.49298095703125 0.704 Q 0.51298095703125 0.6890000000000001 0.53198095703125 0.67 Q 0.55098095703125 0.651 0.5609809570312501 0.64 L 0.58098095703125 0.619 Q 0.58598095703125 0.614 0.58998095703125 0.6085 Q 0.59398095703125 0.603 0.59798095703125 0.598 Q 0.60098095703125 0.593 0.60598095703125 0.593 Q 0.61798095703125 0.593 0.61798095703125 0.607 Q 0.61798095703125 0.614 0.61298095703125 0.619 Q 0.60198095703125 0.633 0.59098095703125 0.646 Q 0.57998095703125 0.659 0.56798095703125 0.672 Q 0.55098095703125 0.692 0.52998095703125 0.7125 Q 0.50898095703125 0.733 0.48498095703125 0.7465 Q 0.46098095703124997 0.76 0.43298095703125 0.76 M 0.80796484375 0.764 Q 0.78796484375 0.764 0.77546484375 0.749 Q 0.7629648437500001 0.734 0.7629648437500001 0.707 Q 0.7629648437500001 0.688 0.7689648437500001 0.666 Q 0.7709648437500001 0.658 0.77946484375 0.6385 Q 0.78796484375 0.619 0.79696484375 0.599 Q 0.79996484375 0.594 0.80196484375 0.589 Q 0.77296484375 0.627 0.73796484375 0.6565 Q 0.70296484375 0.6859999999999999 0.66396484375 0.6859999999999999 Q 0.6299648437500001 0.685 0.61596484375 0.6675 Q 0.60196484375 0.65 0.60196484375 0.625 Q 0.60196484375 0.597 0.61446484375 0.5640000000000001 Q 0.62696484375 0.531 0.64196484375 0.506 Q 0.66796484375 0.465 0.70546484375 0.4255 Q 0.74296484375 0.386 0.78596484375 0.36 Q 0.82896484375 0.334 0.86796484375 0.334 Q 0.9119648437500001 0.334 0.94796484375 0.363 Q 0.95696484375 0.37 0.9604648437500001 0.378 Q 0.96396484375 0.386 0.96396484375 0.392 Q 0.96396484375 0.401 0.95896484375 0.407 Q 0.95396484375 0.413 0.94696484375 0.413 Q 0.93596484375 0.413 0.92996484375 0.397 Q 0.92396484375 0.38 0.9139648437500001 0.373 Q 0.9039648437500001 0.366 0.8919648437500001 0.366 Q 0.86796484375 0.366 0.83696484375 0.388 Q 0.80596484375 0.41 0.77596484375 0.442 Q 0.74096484375 0.477 0.71446484375 0.5185 Q 0.68796484375 0.56 0.67396484375 0.594 Q 0.66096484375 0.623 0.66096484375 0.638 Q 0.66096484375 0.652 0.67196484375 0.652 Q 0.68696484375 0.652 0.71796484375 0.627 Q 0.7399648437499999 0.61 0.76546484375 0.583 Q 0.79096484375 0.556 0.81396484375 0.529 Q 0.83696484375 0.502 0.84996484375 0.487 Q 0.8549648437499999 0.479 0.85946484375 0.472 Q 0.86396484375 0.465 0.86796484375 0.46 Q 0.87896484375 0.445 0.9019648437500001 0.445 Q 0.91696484375 0.445 0.9274648437499999 0.452 Q 0.93796484375 0.459 0.93296484375 0.471 Q 0.92996484375 0.476 0.92496484375 0.4855 Q 0.91996484375 0.495 0.91296484375 0.509 Q 0.8999648437500001 0.533 0.8839648437500001 0.565 Q 0.86796484375 0.597 0.85396484375 0.625 Q 0.83996484375 0.653 0.83296484375 0.669 Q 0.81796484375 0.699 0.81796484375 0.712 Q 0.81796484375 0.721 0.82496484375 0.721 Q 0.82796484375 0.721 0.83246484375 0.719 Q 0.83696484375 0.717 0.84296484375 0.714 Q 0.8609648437499999 0.704 0.8819648437500001 0.6859999999999999 Q 0.90296484375 0.668 0.92696484375 0.64 Q 0.93796484375 0.629 0.94696484375 0.6185 Q 0.95596484375 0.608 0.96396484375 0.598 Q 0.96696484375 0.593 0.97196484375 0.593 Q 0.9839648437499999 0.593 0.9839648437499999 0.607 Q 0.9839648437499999 0.614 0.97896484375 0.619 Q 0.96796484375 0.633 0.95696484375 0.646 Q 0.94596484375 0.659 0.93396484375 0.672 Q 0.92296484375 0.685 0.91146484375 0.698 Q 0.8999648437500001 0.711 0.88696484375 0.722 Q 0.8649648437499999 0.744 0.84446484375 0.754 Q 0.82396484375 0.764 0.80796484375 0.764 M 0.75499267578125 1.116 Q 0.72399267578125 1.116 0.70649267578125 1.099 Q 0.68899267578125 1.082 0.68899267578125 1.054 Q 0.68899267578125 1.0230000000000001 0.70549267578125 0.995 Q 0.72199267578125 0.967 0.74749267578125 0.942 Q 0.77299267578125 0.917 0.8014926757812499 0.898 Q 0.82999267578125 0.879 0.85399267578125 0.866 Q 0.87799267578125 0.852 0.90449267578125 0.84 Q 0.93099267578125 0.828 0.95899267578125 0.817 Q 0.98599267578125 0.806 1.01399267578125 0.7935 Q 1.04199267578125 0.781 1.0699926757812501 0.767 Q 1.07699267578125 0.747 1.08099267578125 0.7285 Q 1.08499267578125 0.71 1.08499267578125 0.696 Q 1.08499267578125 0.677 1.07699267578125 0.666 Q 1.06899267578125 0.655 1.0519926757812499 0.655 Q 1.04399267578125 0.655 1.02699267578125 0.66 Q 1.02499267578125 0.661 1.02299267578125 0.6615 Q 1.02099267578125 0.662 1.01899267578125 0.662 Q 1.01299267578125 0.662 1.01049267578125 0.6575 Q 1.00799267578125 0.653 1.01199267578125 0.647 Q 1.02599267578125 0.635 1.03999267578125 0.6225 Q 1.05399267578125 0.61 1.06899267578125 0.596 Q 1.08299267578125 0.582 1.09849267578125 0.5680000000000001 Q 1.11399267578125 0.554 1.12999267578125 0.539 Q 1.15099267578125 0.52 1.16899267578125 0.5025 Q 1.1869926757812501 0.485 1.20399267578125 0.46799999999999997 Q 1.2069926757812501 0.465 1.20899267578125 0.463 Q 1.19999267578125 0.463 1.18799267578125 0.462 Q 1.17599267578125 0.461 1.16499267578125 0.461 Q 1.11899267578125 0.461 1.08999267578125 0.4835 Q 1.06099267578125 0.506 1.03599267578125 0.538 Q 1.02999267578125 0.545 1.02399267578125 0.554 Q 1.01799267578125 0.563 1.00999267578125 0.5740000000000001 Q 0.9959926757812501 0.595 0.97999267578125 0.6165 Q 0.96399267578125 0.638 0.94999267578125 0.653 Q 0.94499267578125 0.658 0.93799267578125 0.658 Q 0.92699267578125 0.658 0.92699267578125 0.647 Q 0.92699267578125 0.641 0.92999267578125 0.637 Q 0.94899267578125 0.615 0.96399267578125 0.5895 Q 0.97899267578125 0.5640000000000001 0.99199267578125 0.539 Q 1.01099267578125 0.505 1.03049267578125 0.4755 Q 1.04999267578125 0.446 1.07499267578125 0.428 Q 1.09999267578125 0.41 1.13399267578125 0.413 Q 1.15999267578125 0.415 1.18199267578125 0.4165 Q 1.20399267578125 0.418 1.22299267578125 0.418 Q 1.24399267578125 0.418 1.2614926757812501 0.4165 Q 1.27899267578125 0.415 1.2939926757812499 0.414 L 1.2979926757812499 0.423 L 1.22099267578125 0.493 Q 1.20199267578125 0.509 1.18599267578125 0.525 Q 1.16999267578125 0.541 1.15299267578125 0.556 Q 1.13799267578125 0.5700000000000001 1.12499267578125 0.5815 Q 1.11199267578125 0.593 1.10099267578125 0.603 L 1.0739926757812501 0.628 Q 1.11199267578125 0.626 1.13299267578125 0.644 Q 1.15399267578125 0.662 1.15399267578125 0.697 Q 1.15399267578125 0.709 1.15099267578125 0.723 L 1.16799267578125 0.712 Q 1.1949926757812501 0.6950000000000001 1.21899267578125 0.674 Q 1.24299267578125 0.653 1.25399267578125 0.64 Q 1.26499267578125 0.629 1.27399267578125 0.6185 Q 1.28299267578125 0.608 1.29099267578125 0.598 Q 1.2939926757812499 0.593 1.29899267578125 0.593 Q 1.31099267578125 0.593 1.31099267578125 0.607 Q 1.31099267578125 0.613 1.30499267578125 0.619 Q 1.2939926757812499 0.633 1.28349267578125 0.646 Q 1.27299267578125 0.659 1.26099267578125 0.672 Q 1.25499267578125 0.68 1.2314926757812499 0.7005 Q 1.20799267578125 0.721 1.18099267578125 0.739 Q 1.15999267578125 0.753 1.14099267578125 0.763 Q 1.10999267578125 0.86 1.05499267578125 0.931 Q 0.98799267578125 1.018 0.90999267578125 1.0665 Q 0.83199267578125 1.115 0.75499267578125 1.116 M 0.75499267578125 1.083 Q 0.79599267578125 1.083 0.84149267578125 1.055 Q 0.88699267578125 1.0270000000000001 0.93049267578125 0.983 Q 0.97399267578125 0.9390000000000001 1.00599267578125 0.893 Q 1.02099267578125 0.871 1.03349267578125 0.849 Q 1.04599267578125 0.827 1.05599267578125 0.805 L 0.95799267578125 0.847 Q 0.92999267578125 0.859 0.90549267578125 0.8705 Q 0.88099267578125 0.882 0.85899267578125 0.895 Q 0.83199267578125 0.911 0.79999267578125 0.9359999999999999 Q 0.76799267578125 0.9610000000000001 0.74499267578125 0.991 Q 0.72199267578125 1.021 0.72199267578125 1.054 Q 0.72199267578125 1.066 0.7309926757812499 1.0745 Q 0.73999267578125 1.083 0.75499267578125 1.083 M 1.48096728515625 0.323 Q 1.46796728515625 0.323 1.45896728515625 0.3145 Q 1.44996728515625 0.306 1.44996728515625 0.293 Q 1.44996728515625 0.27599999999999997 1.46196728515625 0.264 Q 1.47396728515625 0.252 1.48996728515625 0.252 Q 1.50596728515625 0.252 1.51446728515625 0.263 Q 1.5229672851562501 0.274 1.52096728515625 0.289 Q 1.51696728515625 0.304 1.50596728515625 0.3135 Q 1.49496728515625 0.323 1.48096728515625 0.323 M 1.31896728515625 0.76 Q 1.29096728515625 0.76 1.27646728515625 0.7415 Q 1.26196728515625 0.723 1.26196728515625 0.69 Q 1.26196728515625 0.675 1.26496728515625 0.657 Q 1.26896728515625 0.636 1.28046728515625 0.6065 Q 1.29196728515625 0.577 1.30696728515625 0.5469999999999999 Q 1.32196728515625 0.517 1.33396728515625 0.496 Q 1.34496728515625 0.477 1.36046728515625 0.4515 Q 1.3759672851562499 0.426 1.3859672851562501 0.408 Q 1.3939672851562501 0.395 1.39696728515625 0.392 Q 1.40396728515625 0.378 1.42296728515625 0.3695 Q 1.44196728515625 0.361 1.45796728515625 0.361 Q 1.47896728515625 0.361 1.47896728515625 0.374 Q 1.47896728515625 0.38 1.47296728515625 0.389 Q 1.45396728515625 0.42 1.42846728515625 0.4605 Q 1.40296728515625 0.501 1.37896728515625 0.544 Q 1.35496728515625 0.587 1.33946728515625 0.6255 Q 1.32396728515625 0.664 1.32396728515625 0.6910000000000001 Q 1.32396728515625 0.719 1.34496728515625 0.719 Q 1.35896728515625 0.719 1.37896728515625 0.704 Q 1.39896728515625 0.6890000000000001 1.41796728515625 0.67 Q 1.43696728515625 0.651 1.44696728515625 0.64 L 1.46696728515625 0.619 Q 1.47196728515625 0.614 1.47596728515625 0.6085 Q 1.47996728515625 0.603 1.48396728515625 0.598 Q 1.48696728515625 0.593 1.49196728515625 0.593 Q 1.50396728515625 0.593 1.50396728515625 0.607 Q 1.50396728515625 0.614 1.49896728515625 0.619 Q 1.48796728515625 0.633 1.47696728515625 0.646 Q 1.46596728515625 0.659 1.45396728515625 0.672 Q 1.43696728515625 0.692 1.41596728515625 0.7125 Q 1.39496728515625 0.733 1.37096728515625 0.7465 Q 1.34696728515625 0.76 1.31896728515625 0.76 M 1.69993408203125 0.841 Q 1.62193408203125 0.841 1.62193408203125 0.752 Q 1.62193408203125 0.726 1.62943408203125 0.692 Q 1.63693408203125 0.658 1.64993408203125 0.618 Q 1.66293408203125 0.583 1.68343408203125 0.5375 Q 1.70393408203125 0.492 1.72593408203125 0.449 Q 1.67093408203125 0.46699999999999997 1.63293408203125 0.46699999999999997 Q 1.61793408203125 0.46699999999999997 1.60893408203125 0.464 Q 1.58993408203125 0.46 1.58993408203125 0.45 Q 1.58993408203125 0.445 1.59643408203125 0.442 Q 1.60293408203125 0.439 1.61493408203125 0.441 Q 1.61893408203125 0.442 1.62243408203125 0.442 Q 1.62593408203125 0.442 1.62993408203125 0.442 Q 1.67693408203125 0.442 1.74293408203125 0.414 Q 1.86093408203125 0.20299999999999996 2.00393408203125 0.06999999999999995 Q 2.02993408203125 0.04400000000000004 2.06443408203125 0.029000000000000026 Q 2.09893408203125 0.014000000000000012 2.12893408203125 0.014000000000000012 Q 2.15493408203125 0.014000000000000012 2.17243408203125 0.02849999999999997 Q 2.1899340820312503 0.04300000000000004 2.1899340820312503 0.07499999999999996 Q 2.1899340820312503 0.09899999999999998 2.17793408203125 0.126 Q 2.14893408203125 0.18799999999999994 2.07093408203125 0.254 Q 2.05193408203125 0.27 2.03193408203125 0.2855 Q 2.01193408203125 0.301 1.99093408203125 0.315 Q 1.90593408203125 0.374 1.81593408203125 0.414 Q 1.79793408203125 0.446 1.77993408203125 0.483 Q 1.76193408203125 0.52 1.74493408203125 0.5609999999999999 Q 1.73793408203125 0.577 1.73093408203125 0.595 Q 1.72393408203125 0.613 1.71793408203125 0.63 L 1.70093408203125 0.672 Q 1.69193408203125 0.694 1.68493408203125 0.72 Q 1.67793408203125 0.746 1.67793408203125 0.768 Q 1.67793408203125 0.787 1.68443408203125 0.799 Q 1.69093408203125 0.811 1.70593408203125 0.811 Q 1.72893408203125 0.811 1.75343408203125 0.7815 Q 1.77793408203125 0.752 1.79693408203125 0.719 Q 1.80993408203125 0.696 1.82143408203125 0.6695 Q 1.83293408203125 0.643 1.84043408203125 0.6185 Q 1.84793408203125 0.594 1.84893408203125 0.58 L 1.84993408203125 0.5700000000000001 Q 1.82293408203125 0.5589999999999999 1.82293408203125 0.521 Q 1.82293408203125 0.495 1.83343408203125 0.477 Q 1.84393408203125 0.459 1.85893408203125 0.459 Q 1.89093408203125 0.459 1.89093408203125 0.517 Q 1.89093408203125 0.527 1.88993408203125 0.5395 Q 1.8889340820312501 0.552 1.88693408203125 0.5660000000000001 Q 1.89393408203125 0.5680000000000001 1.90643408203125 0.5700000000000001 Q 1.91893408203125 0.5720000000000001 1.92793408203125 0.5720000000000001 Q 1.96193408203125 0.5720000000000001 1.98543408203125 0.5509999999999999 Q 2.0089340820312502 0.53 2.03093408203125 0.501 Q 2.03493408203125 0.496 2.03993408203125 0.496 Q 2.04493408203125 0.496 2.04793408203125 0.501 Q 2.05093408203125 0.506 2.05093408203125 0.513 Q 2.05093408203125 0.519 2.04793408203125 0.525 Q 1.99593408203125 0.602 1.92893408203125 0.602 Q 1.90893408203125 0.602 1.88293408203125 0.594 L 1.87793408203125 0.611 Q 1.8769340820312501 0.616 1.87543408203125 0.6205 Q 1.87393408203125 0.625 1.8729340820312501 0.629 Q 1.86393408203125 0.653 1.84643408203125 0.6885 Q 1.82893408203125 0.724 1.80593408203125 0.759 Q 1.78293408203125 0.794 1.7559340820312501 0.8175 Q 1.72893408203125 0.841 1.69993408203125 0.841 M 2.08793408203125 0.06499999999999995 Q 2.06693408203125 0.07699999999999996 2.03393408203125 0.11050000000000004 Q 2.0009340820312502 0.14400000000000002 1.96393408203125 0.18999999999999995 Q 1.92693408203125 0.236 1.89143408203125 0.2845 Q 1.85593408203125 0.333 1.82993408203125 0.376 Q 1.89593408203125 0.34099999999999997 1.96043408203125 0.2995 Q 2.0249340820312502 0.258 2.07543408203125 0.20799999999999996 Q 2.1259340820312502 0.15800000000000003 2.15193408203125 0.09599999999999997 Q 2.1579340820312503 0.08199999999999996 2.1579340820312503 0.07199999999999995 Q 2.1579340820312503 0.049000000000000044 2.1339340820312502 0.049000000000000044 Q 2.1139340820312498 0.049000000000000044 2.08793408203125 0.06499999999999995 M 1.9409267578125 0.9359999999999999 Q 1.9159267578125 0.9359999999999999 1.9024267578125 0.9165 Q 1.8889267578125 0.897 1.8889267578125 0.863 Q 1.8889267578125 0.855 1.8899267578125 0.845 Q 1.8909267578125 0.835 1.8929267578125 0.825 Q 1.9099267578125 0.733 1.9444267578125 0.632 Q 1.9789267578125 0.531 2.0309267578125 0.431 Q 2.0029267578125 0.44 1.9794267578125 0.444 Q 1.9559267578125 0.448 1.9369267578125 0.448 Q 1.9149267578125 0.448 1.9049267578125 0.4425 Q 1.8949267578125 0.437 1.8949267578125 0.432 Q 1.8949267578125 0.422 1.9149267578125 0.422 Q 1.9199267578125 0.422 1.9249267578125 0.4225 Q 1.9299267578125 0.423 1.9339267578125 0.423 Q 1.9789267578125 0.423 2.0479267578125 0.396 Q 2.1059267578125 0.291 2.1719267578125 0.20350000000000001 Q 2.2379267578125 0.11599999999999999 2.3089267578125 0.051000000000000045 Q 2.3379267578125003 0.025000000000000022 2.3654267578125 0.012499999999999956 Q 2.3929267578125 0 2.4149267578125 0 Q 2.4409267578125 0 2.4584267578125 0.01749999999999996 Q 2.4759267578125 0.03500000000000003 2.4759267578125 0.07199999999999995 Q 2.4759267578125 0.09199999999999997 2.4669267578125 0.11499999999999999 Q 2.4409267578125 0.17999999999999994 2.3649267578125 0.244 Q 2.3459267578125 0.26 2.3259267578125 0.275 Q 2.3059267578125002 0.29 2.2859267578124998 0.304 Q 2.2439267578125 0.332 2.1984267578125 0.357 Q 2.1529267578125 0.382 2.1089267578125 0.4 Q 2.0409267578125 0.518 2.0009267578125 0.63 Q 1.9579267578125 0.753 1.9559267578125 0.84 Q 1.9559267578125 0.88 1.9739267578125 0.88 Q 1.9799267578125 0.88 1.9869267578125 0.877 Q 1.9939267578125 0.874 2.0039267578125 0.87 Q 2.0339267578125 0.852 2.0559267578125002 0.833 Q 2.0779267578125 0.8140000000000001 2.0999267578125 0.789 Q 2.1079267578125 0.78 2.1204267578125 0.765 Q 2.1329267578125 0.75 2.1479267578125 0.731 Q 2.1659267578125 0.709 2.1854267578125 0.685 Q 2.2049267578125002 0.661 2.2219267578125 0.641 Q 2.2419267578125 0.617 2.2619267578125 0.595 Q 2.2659267578125 0.59 2.2709267578125 0.59 Q 2.2829267578125 0.59 2.2829267578125 0.603 Q 2.2829267578125 0.61 2.2769267578125 0.616 Q 2.2659267578125 0.63 2.2534267578125 0.645 Q 2.2409267578125 0.66 2.2299267578125 0.673 Q 2.2239267578125 0.68 2.2064267578125 0.7005 Q 2.1889267578125002 0.721 2.1659267578125 0.749 Q 2.1449267578125 0.774 2.1224267578125 0.8015 Q 2.0999267578125 0.829 2.0809267578125 0.851 Q 2.0619267578125 0.873 2.0499267578125 0.885 Q 1.9959267578125 0.9359999999999999 1.9409267578125 0.9359999999999999 M 2.3929267578125 0.04600000000000004 Q 2.3309267578125 0.09499999999999997 2.2634267578125 0.17600000000000005 Q 2.1959267578125 0.257 2.1349267578125 0.357 Q 2.1819267578125 0.333 2.2304267578125 0.3005 Q 2.2789267578125 0.268 2.3219267578125002 0.23099999999999998 Q 2.3649267578125 0.19399999999999995 2.3959267578125 0.15549999999999997 Q 2.4269267578125 0.11699999999999999 2.4389267578125002 0.08099999999999996 Q 2.4429267578125 0.06899999999999995 2.4429267578125 0.05799999999999994 Q 2.4429267578125 0.03300000000000003 2.4229267578125 0.03300000000000003 Q 2.4089267578125 0.03300000000000003 2.3929267578125 0.04600000000000004 M 2.3329521484375 0.764 Q 2.2959521484375 0.764 2.2724521484375 0.733 Q 2.2489521484375 0.702 2.2489521484375 0.656 Q 2.2489521484375 0.618 2.2609521484375 0.584 Q 2.2849521484375 0.518 2.3409521484375 0.459 Q 2.3809521484375 0.419 2.4244521484375 0.3945 Q 2.4679521484375 0.37 2.5019521484375 0.37 Q 2.5309521484375 0.37 2.5484521484375 0.385 Q 2.5659521484375 0.4 2.5659521484375 0.421 Q 2.5659521484375 0.43 2.5609521484375 0.443 Q 2.5719521484375 0.444 2.5819521484375 0.4445 Q 2.5919521484375 0.445 2.6019521484375 0.445 Q 2.6219521484375 0.445 2.6414521484375 0.443 Q 2.6609521484375 0.441 2.6789521484375 0.437 L 2.6839521484375 0.437 Q 2.6969521484375 0.437 2.6969521484375 0.446 Q 2.6969521484375 0.453 2.6849521484375 0.458 Q 2.6749521484375 0.462 2.6524521484375 0.466 Q 2.6299521484375 0.47 2.6044521484375 0.4725 Q 2.5789521484374998 0.475 2.5589521484375 0.475 Q 2.5519521484375 0.475 2.5464521484375 0.475 Q 2.5409521484375 0.475 2.5369521484375 0.474 L 2.5329521484375 0.476 Q 2.5429521484375 0.492 2.5429521484375 0.521 Q 2.5429521484375 0.5609999999999999 2.5234521484375 0.6035 Q 2.5039521484375 0.646 2.4724521484375 0.6825 Q 2.4409521484375 0.719 2.4039521484375 0.7415 Q 2.3669521484375 0.764 2.3329521484375 0.764 M 2.3419521484375 0.73 Q 2.3679521484375 0.73 2.3929521484375 0.711 Q 2.4179521484375 0.692 2.4389521484375 0.661 Q 2.4599521484375 0.63 2.4744521484375 0.594 Q 2.4889521484375 0.558 2.4929521484375 0.525 Q 2.4939521484375 0.519 2.4939521484375 0.5135000000000001 Q 2.4939521484375 0.508 2.4939521484375 0.504 Q 2.4939521484375 0.489 2.4909521484375 0.48 L 2.4889521484375 0.48 Q 2.4759521484375 0.477 2.4699521484374998 0.4735 Q 2.4639521484375 0.47 2.4579521484375 0.464 L 2.4569521484375 0.463 Q 2.4529521484375 0.459 2.4524521484375 0.4555 Q 2.4519521484375 0.452 2.4519521484375 0.448 Q 2.4519521484375 0.439 2.4589521484375 0.4335 Q 2.4659521484375 0.428 2.4759521484375 0.43 L 2.5259521484375 0.439 Q 2.5339521484375 0.423 2.5339521484375 0.414 Q 2.5339521484375 0.394 2.5029521484375 0.394 Q 2.4759521484375 0.394 2.4444521484375 0.4215 Q 2.4129521484375 0.449 2.3844521484375 0.4895 Q 2.3559521484375 0.53 2.3349521484375 0.5700000000000001 Q 2.3249521484375 0.59 2.3179521484375 0.6185 Q 2.3109521484375 0.647 2.3109521484375 0.673 Q 2.3109521484375 0.697 2.3184521484375 0.7135 Q 2.3259521484375 0.73 2.3419521484375 0.73 M 2.4689599609375 1.231 Q 2.4339599609375 1.231 2.4104599609375 1.209 Q 2.3869599609375 1.187 2.3869599609375 1.147 Q 2.3869599609375 1.097 2.4204599609375 1.0405 Q 2.4539599609375 0.984 2.5149599609375 0.926 Q 2.5479599609375 0.894 2.5934599609375 0.8595 Q 2.6389599609375 0.825 2.6864599609375 0.7935 Q 2.7339599609375 0.762 2.7709599609375 0.741 Q 2.7939599609375 0.692 2.8149599609375002 0.6425 Q 2.8359599609375 0.593 2.8539599609375 0.546 Q 2.8339599609375 0.579 2.8109599609375 0.6154999999999999 Q 2.7879599609375 0.652 2.7614599609375 0.683 Q 2.7349599609375 0.714 2.7064599609375 0.733 Q 2.6779599609375 0.752 2.6479599609375 0.752 Q 2.6079599609375 0.752 2.5919599609375 0.7275 Q 2.5759599609375 0.703 2.5759599609375 0.667 Q 2.5759599609375 0.63 2.5879599609375 0.5885 Q 2.5999599609375 0.5469999999999999 2.6139599609375 0.516 Q 2.6339599609375 0.474 2.6629599609375 0.4325 Q 2.6919599609375 0.391 2.7269599609375 0.3575 Q 2.7619599609375 0.324 2.7979599609375 0.3035 Q 2.8339599609375 0.283 2.8669599609375 0.283 Q 2.9229599609375 0.283 2.9544599609375 0.322 Q 2.9859599609375 0.361 2.9859599609375 0.43 Q 2.9859599609375 0.449 2.9799599609375 0.4605 Q 2.9739599609375 0.472 2.9669599609375 0.472 Q 2.9569599609375 0.472 2.9569599609375 0.447 Q 2.9589599609375 0.422 2.9514599609375 0.3955 Q 2.9439599609375 0.369 2.9284599609375 0.3505 Q 2.9129599609375 0.332 2.8899599609375 0.331 Q 2.8549599609375 0.329 2.8149599609375002 0.3575 Q 2.7749599609375 0.386 2.7389599609375 0.439 Q 2.7279599609375 0.455 2.7179599609375 0.471 Q 2.7079599609375 0.487 2.6989599609375 0.503 Q 2.6629599609375 0.5700000000000001 2.6499599609375 0.616 Q 2.6439599609375 0.633 2.6414599609375 0.648 Q 2.6389599609375 0.663 2.6389599609375 0.674 Q 2.6389599609375 0.71 2.6609599609375 0.71 Q 2.6809599609375 0.71 2.7109599609375 0.68 Q 2.7289599609375 0.661 2.7509599609375 0.635 Q 2.7729599609375 0.609 2.7944599609375 0.5815 Q 2.8159599609375 0.554 2.8334599609375 0.5305 Q 2.8509599609375 0.507 2.8609599609375 0.494 Q 2.8629599609375 0.491 2.8654599609374998 0.487 Q 2.8679599609375 0.483 2.8719599609375 0.478 Q 2.8789599609375 0.46799999999999997 2.8859599609375 0.446 Q 2.8899599609375 0.433 2.8964599609375 0.427 Q 2.9029599609375 0.421 2.9089599609375 0.421 Q 2.9239599609375 0.421 2.9239599609375 0.445 Q 2.9219599609375 0.466 2.9094599609375003 0.51 Q 2.8969599609375 0.554 2.8804599609375 0.6055 Q 2.8639599609375 0.657 2.8479599609375 0.701 Q 2.8539599609375 0.698 2.8599599609375 0.6950000000000001 Q 2.8659599609375 0.692 2.8709599609375 0.69 L 2.8959599609375 0.68 Q 2.8979599609375 0.679 2.9019599609375 0.679 Q 2.9099599609375 0.679 2.9139599609375 0.6835 Q 2.9179599609375 0.688 2.9179599609375 0.6930000000000001 Q 2.9179599609375 0.703 2.9079599609375 0.706 Q 2.8959599609375 0.71 2.8764599609375 0.7185 Q 2.8569599609375 0.727 2.8329599609375 0.74 Q 2.8069599609375 0.8130000000000001 2.7754599609375 0.882 Q 2.7439599609375 0.9510000000000001 2.7149599609375 1.001 Q 2.6159599609375 1.17 2.5319599609375 1.214 Q 2.5159599609375 1.223 2.4994599609375 1.227 Q 2.4829599609375 1.231 2.4689599609375 1.231 M 2.4629599609375 1.198 Q 2.4819599609375 1.198 2.5009599609375 1.185 Q 2.5239599609375 1.169 2.5499599609375 1.138 Q 2.5759599609375 1.107 2.6019599609375 1.068 Q 2.6279599609375 1.029 2.6509599609375 0.9895 Q 2.6739599609375 0.95 2.6889599609375 0.917 L 2.7479599609375 0.79 Q 2.7159599609375 0.812 2.6809599609375 0.8365 Q 2.6459599609375 0.861 2.6119599609375 0.888 Q 2.5789599609375 0.916 2.5449599609375 0.9490000000000001 Q 2.5109599609375 0.982 2.4824599609375 1.017 Q 2.4539599609375 1.052 2.4364599609375 1.085 Q 2.4189599609375 1.1179999999999999 2.4189599609375 1.146 Q 2.4189599609375 1.171 2.4314599609375 1.1844999999999999 Q 2.4439599609375 1.198 2.4629599609375 1.198 M 2.89494677734375 0.919 Q 2.85494677734375 0.922 2.83244677734375 0.9045 Q 2.80994677734375 0.887 2.80994677734375 0.863 Q 2.80994677734375 0.847 2.82044677734375 0.8305 Q 2.83094677734375 0.8140000000000001 2.85394677734375 0.801 Q 2.88294677734375 0.784 2.91644677734375 0.774 Q 2.94994677734375 0.764 2.98494677734375 0.756 Q 3.00194677734375 0.752 3.01994677734375 0.7475 Q 3.03794677734375 0.743 3.05494677734375 0.738 L 3.07294677734375 0.7 Q 3.08394677734375 0.676 3.09494677734375 0.6385 Q 3.10594677734375 0.601 3.11494677734375 0.5605 Q 3.12394677734375 0.52 3.12794677734375 0.489 Q 3.0889467773437502 0.529 3.05194677734375 0.571 Q 3.01494677734375 0.613 2.96194677734375 0.673 Q 2.95494677734375 0.683 2.94894677734375 0.683 Q 2.94094677734375 0.683 2.94094677734375 0.671 Q 2.94094677734375 0.658 2.95394677734375 0.642 L 3.02594677734375 0.556 Q 3.04294677734375 0.535 3.06244677734375 0.514 Q 3.08194677734375 0.493 3.10394677734375 0.471 L 3.12794677734375 0.447 Q 3.14294677734375 0.363 3.18994677734375 0.363 Q 3.20694677734375 0.363 3.21694677734375 0.3715 Q 3.22694677734375 0.38 3.22694677734375 0.393 Q 3.22694677734375 0.399 3.22594677734375 0.402 L 3.22294677734375 0.40599999999999997 Q 3.21594677734375 0.408 3.19694677734375 0.4245 Q 3.17794677734375 0.441 3.15894677734375 0.458 Q 3.15994677734375 0.46699999999999997 3.16044677734375 0.477 Q 3.16094677734375 0.487 3.16094677734375 0.499 Q 3.16094677734375 0.546 3.15194677734375 0.618 Q 3.14794677734375 0.64 3.14344677734375 0.662 Q 3.13894677734375 0.6839999999999999 3.13294677734375 0.705 Q 3.15594677734375 0.692 3.17594677734375 0.6765 Q 3.19594677734375 0.661 3.21494677734375 0.642 L 3.22094677734375 0.636 Q 3.22794677734375 0.629 3.23394677734375 0.621 Q 3.23994677734375 0.613 3.24694677734375 0.605 Q 3.24994677734375 0.601 3.25494677734375 0.601 Q 3.25994677734375 0.601 3.26344677734375 0.6055 Q 3.26694677734375 0.61 3.26694677734375 0.615 Q 3.26694677734375 0.62 3.26394677734375 0.623 Q 3.24494677734375 0.65 3.22294677734375 0.672 Q 3.18394677734375 0.709 3.12094677734375 0.743 Q 3.05594677734375 0.908 2.89494677734375 0.919 M 2.87294677734375 0.886 Q 2.88294677734375 0.886 2.89594677734375 0.883 Q 2.92794677734375 0.875 2.96344677734375 0.851 Q 2.99894677734375 0.827 3.03294677734375 0.776 Q 3.01394677734375 0.781 2.99544677734375 0.7855 Q 2.97694677734375 0.79 2.95794677734375 0.795 Q 2.91694677734375 0.804 2.87294677734375 0.828 Q 2.85694677734375 0.837 2.84994677734375 0.8475 Q 2.84294677734375 0.858 2.84294677734375 0.866 Q 2.84294677734375 0.886 2.87294677734375 0.886" fill="#fffcf7" fill-rule="nonzero"></path></g><g transform="matrix(1,0,0,1,0,0)"></g></g><defs><clipPath id="SvgjsClipPath1001"><path d=" M -1.1 -2.331966552734375 h 5.41893310546875 v 5.41893310546875 h -5.41893310546875 Z"></path></clipPath></defs></svg>